<svg xmlns="http://www.w3.org/2000/svg" xmlns:xlink="http://www.w3.org/1999/xlink" width="970.335" height="1080.67" viewBox="0 0 970.335 1080.67">
  <defs>
    <clipPath id="clip-path">
      <rect width="884.006" height="1080.67" fill="none"/>
    </clipPath>
    <clipPath id="clip-path-2">
      <rect width="833.335" height="1080.67" fill="none"/>
    </clipPath>
  </defs>
  <g id="Group_7" data-name="Group 7" transform="translate(10.335 0.335)">
    <rect id="Rectangle_7" data-name="Rectangle 7" width="960" height="1080" fill="#4682b4"/>
    <g id="Repeat_Grid_1" data-name="Repeat Grid 1" transform="translate(-10.335 -0.335)" clip-path="url(#clip-path)">
      <g transform="translate(-557.665 -193.665)">
        <g id="Rectangle_2" data-name="Rectangle 2" transform="translate(557.665 330.064) rotate(-43)" fill="none" stroke="#f4a460" stroke-width="3">
          <rect width="200" height="200" rx="38" stroke="none"/>
          <rect x="1.5" y="1.5" width="197" height="197" rx="36.5" fill="none"/>
        </g>
      </g>
      <g transform="translate(-254.665 -193.665)">
        <g id="Rectangle_2-2" data-name="Rectangle 2" transform="translate(557.665 330.064) rotate(-43)" fill="none" stroke="#f4a460" stroke-width="3">
          <rect width="200" height="200" rx="38" stroke="none"/>
          <rect x="1.5" y="1.5" width="197" height="197" rx="36.5" fill="none"/>
        </g>
      </g>
      <g transform="translate(48.335 -193.665)">
        <g id="Rectangle_2-3" data-name="Rectangle 2" transform="translate(557.665 330.064) rotate(-43)" fill="none" stroke="#f4a460" stroke-width="3">
          <rect width="200" height="200" rx="38" stroke="none"/>
          <rect x="1.5" y="1.5" width="197" height="197" rx="36.5" fill="none"/>
        </g>
      </g>
      <g transform="translate(-557.665 109.335)">
        <g id="Rectangle_2-4" data-name="Rectangle 2" transform="translate(557.665 330.064) rotate(-43)" fill="none" stroke="#f4a460" stroke-width="3">
          <rect width="200" height="200" rx="38" stroke="none"/>
          <rect x="1.5" y="1.5" width="197" height="197" rx="36.5" fill="none"/>
        </g>
      </g>
      <g transform="translate(-254.665 109.335)">
        <g id="Rectangle_2-5" data-name="Rectangle 2" transform="translate(557.665 330.064) rotate(-43)" fill="none" stroke="#f4a460" stroke-width="3">
          <rect width="200" height="200" rx="38" stroke="none"/>
          <rect x="1.5" y="1.5" width="197" height="197" rx="36.5" fill="none"/>
        </g>
      </g>
      <g transform="translate(48.335 109.335)">
        <g id="Rectangle_2-6" data-name="Rectangle 2" transform="translate(557.665 330.064) rotate(-43)" fill="none" stroke="#f4a460" stroke-width="3">
          <rect width="200" height="200" rx="38" stroke="none"/>
          <rect x="1.5" y="1.5" width="197" height="197" rx="36.5" fill="none"/>
        </g>
      </g>
      <g transform="translate(-557.665 412.335)">
        <g id="Rectangle_2-7" data-name="Rectangle 2" transform="translate(557.665 330.064) rotate(-43)" fill="none" stroke="#f4a460" stroke-width="3">
          <rect width="200" height="200" rx="38" stroke="none"/>
          <rect x="1.5" y="1.5" width="197" height="197" rx="36.5" fill="none"/>
        </g>
      </g>
      <g transform="translate(-254.665 412.335)">
        <g id="Rectangle_2-8" data-name="Rectangle 2" transform="translate(557.665 330.064) rotate(-43)" fill="none" stroke="#f4a460" stroke-width="3">
          <rect width="200" height="200" rx="38" stroke="none"/>
          <rect x="1.5" y="1.5" width="197" height="197" rx="36.5" fill="none"/>
        </g>
      </g>
      <g transform="translate(48.335 412.335)">
        <g id="Rectangle_2-9" data-name="Rectangle 2" transform="translate(557.665 330.064) rotate(-43)" fill="none" stroke="#f4a460" stroke-width="3">
          <rect width="200" height="200" rx="38" stroke="none"/>
          <rect x="1.5" y="1.5" width="197" height="197" rx="36.5" fill="none"/>
        </g>
      </g>
      <g transform="translate(-557.665 715.335)">
        <g id="Rectangle_2-10" data-name="Rectangle 2" transform="translate(557.665 330.064) rotate(-43)" fill="none" stroke="#f4a460" stroke-width="3">
          <rect width="200" height="200" rx="38" stroke="none"/>
          <rect x="1.5" y="1.5" width="197" height="197" rx="36.5" fill="none"/>
        </g>
      </g>
      <g transform="translate(-254.665 715.335)">
        <g id="Rectangle_2-11" data-name="Rectangle 2" transform="translate(557.665 330.064) rotate(-43)" fill="none" stroke="#f4a460" stroke-width="3">
          <rect width="200" height="200" rx="38" stroke="none"/>
          <rect x="1.5" y="1.5" width="197" height="197" rx="36.5" fill="none"/>
        </g>
      </g>
      <g transform="translate(48.335 715.335)">
        <g id="Rectangle_2-12" data-name="Rectangle 2" transform="translate(557.665 330.064) rotate(-43)" fill="none" stroke="#f4a460" stroke-width="3">
          <rect width="200" height="200" rx="38" stroke="none"/>
          <rect x="1.5" y="1.5" width="197" height="197" rx="36.5" fill="none"/>
        </g>
      </g>
    </g>
    <g id="Repeat_Grid_2" data-name="Repeat Grid 2" transform="translate(126.665 -0.335)" clip-path="url(#clip-path-2)">
      <g transform="translate(-557.665 -193.665)">
        <g id="Rectangle_2-13" data-name="Rectangle 2" transform="translate(557.665 330.064) rotate(-43)" fill="none" stroke="gold" stroke-width="3">
          <rect width="200" height="200" rx="38" stroke="none"/>
          <rect x="1.5" y="1.5" width="197" height="197" rx="36.5" fill="none"/>
        </g>
      </g>
      <g transform="translate(-242.665 -193.665)">
        <g id="Rectangle_2-14" data-name="Rectangle 2" transform="translate(557.665 330.064) rotate(-43)" fill="none" stroke="gold" stroke-width="3">
          <rect width="200" height="200" rx="38" stroke="none"/>
          <rect x="1.5" y="1.5" width="197" height="197" rx="36.5" fill="none"/>
        </g>
      </g>
      <g transform="translate(72.335 -193.665)">
        <g id="Rectangle_2-15" data-name="Rectangle 2" transform="translate(557.665 330.064) rotate(-43)" fill="none" stroke="gold" stroke-width="3">
          <rect width="200" height="200" rx="38" stroke="none"/>
          <rect x="1.5" y="1.5" width="197" height="197" rx="36.5" fill="none"/>
        </g>
      </g>
      <g transform="translate(-557.665 109.335)">
        <g id="Rectangle_2-16" data-name="Rectangle 2" transform="translate(557.665 330.064) rotate(-43)" fill="none" stroke="gold" stroke-width="3">
          <rect width="200" height="200" rx="38" stroke="none"/>
          <rect x="1.5" y="1.5" width="197" height="197" rx="36.5" fill="none"/>
        </g>
      </g>
      <g transform="translate(-242.665 109.335)">
        <g id="Rectangle_2-17" data-name="Rectangle 2" transform="translate(557.665 330.064) rotate(-43)" fill="none" stroke="gold" stroke-width="3">
          <rect width="200" height="200" rx="38" stroke="none"/>
          <rect x="1.5" y="1.5" width="197" height="197" rx="36.5" fill="none"/>
        </g>
      </g>
      <g transform="translate(72.335 109.335)">
        <g id="Rectangle_2-18" data-name="Rectangle 2" transform="translate(557.665 330.064) rotate(-43)" fill="none" stroke="gold" stroke-width="3">
          <rect width="200" height="200" rx="38" stroke="none"/>
          <rect x="1.5" y="1.5" width="197" height="197" rx="36.5" fill="none"/>
        </g>
      </g>
      <g transform="translate(-557.665 412.335)">
        <g id="Rectangle_2-19" data-name="Rectangle 2" transform="translate(557.665 330.064) rotate(-43)" fill="none" stroke="gold" stroke-width="3">
          <rect width="200" height="200" rx="38" stroke="none"/>
          <rect x="1.5" y="1.5" width="197" height="197" rx="36.5" fill="none"/>
        </g>
      </g>
      <g transform="translate(-242.665 412.335)">
        <g id="Rectangle_2-20" data-name="Rectangle 2" transform="translate(557.665 330.064) rotate(-43)" fill="none" stroke="gold" stroke-width="3">
          <rect width="200" height="200" rx="38" stroke="none"/>
          <rect x="1.5" y="1.5" width="197" height="197" rx="36.5" fill="none"/>
        </g>
      </g>
      <g transform="translate(72.335 412.335)">
        <g id="Rectangle_2-21" data-name="Rectangle 2" transform="translate(557.665 330.064) rotate(-43)" fill="none" stroke="gold" stroke-width="3">
          <rect width="200" height="200" rx="38" stroke="none"/>
          <rect x="1.5" y="1.5" width="197" height="197" rx="36.5" fill="none"/>
        </g>
      </g>
      <g transform="translate(-557.665 715.335)">
        <g id="Rectangle_2-22" data-name="Rectangle 2" transform="translate(557.665 330.064) rotate(-43)" fill="none" stroke="gold" stroke-width="3">
          <rect width="200" height="200" rx="38" stroke="none"/>
          <rect x="1.5" y="1.5" width="197" height="197" rx="36.5" fill="none"/>
        </g>
      </g>
      <g transform="translate(-242.665 715.335)">
        <g id="Rectangle_2-23" data-name="Rectangle 2" transform="translate(557.665 330.064) rotate(-43)" fill="none" stroke="gold" stroke-width="3">
          <rect width="200" height="200" rx="38" stroke="none"/>
          <rect x="1.5" y="1.5" width="197" height="197" rx="36.5" fill="none"/>
        </g>
      </g>
      <g transform="translate(72.335 715.335)">
        <g id="Rectangle_2-24" data-name="Rectangle 2" transform="translate(557.665 330.064) rotate(-43)" fill="none" stroke="gold" stroke-width="3">
          <rect width="200" height="200" rx="38" stroke="none"/>
          <rect x="1.5" y="1.5" width="197" height="197" rx="36.5" fill="none"/>
        </g>
      </g>
    </g>
  </g>
</svg>
